<svg id="aqariussvg" xmlns="http://www.w3.org/2000/svg" xmlns:xlink="http://www.w3.org/1999/xlink" viewBox="0 0 286.22 275.87">
  <defs>
    <style> 
      .cls-1 {
        fill: url(#linear-gradient);
      }

      .cls-2 {
        fill: #5cc9ec;
      }

      .cls-3 {
        fill: url(#linear-gradient-2);
      }

      .cls-4 {
        fill: url(#linear-gradient-3);
      }

      .cls-5 {
        fill: #4a92d5;
      }

      .cls-6 {
        fill: #fff;
      }

      #aqarius_sketch{
      animation: sketch 2s ease-in-out infinite alternate;
      }


      @keyframes sketch{
        from{
              transform: rotateZ(0deg);
        }

        to{
              transform: rotateZ(5deg);
        }
      }



    </style>
    <linearGradient id="linear-gradient" x1="143.11" x2="143.11" y2="275.87" gradientUnits="userSpaceOnUse">
      <stop offset="0" stop-color="#b3e4f1"/>
      <stop offset="0.28" stop-color="#b0e3f1"/>
      <stop offset="0.45" stop-color="#a8e1f0"/>
      <stop offset="0.6" stop-color="#99ddef"/>
      <stop offset="0.74" stop-color="#84d7ed"/>
      <stop offset="0.86" stop-color="#69d0eb"/>
      <stop offset="0.98" stop-color="#48c7e9"/>
      <stop offset="1" stop-color="#40c5e8"/>
    </linearGradient>
    <linearGradient id="linear-gradient-2" x1="143.11" y1="13.39" x2="143.11" y2="262.45" gradientUnits="userSpaceOnUse">
      <stop offset="0.02" stop-color="#fff"/>
      <stop offset="0.17" stop-color="#d4e8f8"/>
      <stop offset="0.4" stop-color="#d1e7f8"/>
      <stop offset="0.54" stop-color="#c9e5f7"/>
      <stop offset="0.66" stop-color="#bae1f5"/>
      <stop offset="0.77" stop-color="#a5dcf3"/>
      <stop offset="0.87" stop-color="#8ad5f1"/>
      <stop offset="0.97" stop-color="#69cced"/>
      <stop offset="1" stop-color="#5cc9ec"/>
    </linearGradient>
    <linearGradient id="linear-gradient-3" x1="143.11" y1="39.58" x2="143.11" y2="236.29" gradientUnits="userSpaceOnUse">
      <stop offset="0" stop-color="#5cc9ec"/>
      <stop offset="0.01" stop-color="#5fcaec"/>
      <stop offset="0.11" stop-color="#80d2ee"/>
      <stop offset="0.21" stop-color="#9bd8ef"/>
      <stop offset="0.32" stop-color="#b0def0"/>
      <stop offset="0.45" stop-color="#bfe1f0"/>
      <stop offset="0.6" stop-color="#c7e3f1"/>
      <stop offset="0.84" stop-color="#cae4f1"/>
      <stop offset="0.97" stop-color="#fff"/>
    </linearGradient>
  </defs>
  <g id="outer_2">
    <path id="outer_board_2" class="cls-1" d="M0,221.31V54.56A54.56,54.56,0,0,1,54.56,0h177.1a54.56,54.56,0,0,1,54.56,54.56V221.31a54.56,54.56,0,0,1-54.56,54.56H54.56A54.56,54.56,0,0,1,0,221.31Z"/>
  </g>
  <g id="outer">
    <path id="outer_board" class="cls-2" d="M231.09,270.31h-176A49.56,49.56,0,0,1,5.57,220.75V55.12A49.56,49.56,0,0,1,55.13,5.56h176a49.56,49.56,0,0,1,49.56,49.56V220.75A49.56,49.56,0,0,1,231.09,270.31Z"/>
  </g>
  <g id="inner_3">
    <path id="inner_circle_3" class="cls-3" d="M270.62,137.92c-2.82,166.06-252.22,166-255,0C18.42-28.13,267.82-28.11,270.62,137.92Z"/>
  </g>
  <g id="inner_2">
    <path id="inner_circle_2" class="cls-4" d="M245,137.94c-2.25,131.15-201.63,131.13-203.86,0C43.43,6.78,242.81,6.8,245,137.94Z"/>
  </g>
  <g id="inner">
    <path id="inner_circle" class="cls-5" d="M226.44,137.94c-1.84,107.22-164.84,107.2-166.66,0C61.62,30.71,224.61,30.73,226.44,137.94Z"/>
  </g>
  <g id="aqarius">
    <path id="aqarius_sketch" class="cls-6" d="M142.15,89.65a16.17,16.17,0,0,1,13.38-8.92c9.82-.71,33.39-2.36,41.76,9.81a6.57,6.57,0,0,1-5.89,3.22c-4.28,0-15.88.53-16.24,3.21s1.61,3.39,2.5,2.32,8.56-2.8,9.81.47-6.6,9.88-7.85,10.23-10.7,8.75-8.74,9.46,10-6.6,12.13-7.14,2.86.72.72,2.86-10.89,12.13-8.21,12.67,10.35-10.71,11.42-11.78,2.5-2.32,2.85-1.07-9.45,13.56-8,14.45,9.1-8.38,10.35-10.88,2.68.53,1.25,6.24,1.79,1.79,3.21-3,3.93-11.6,4.64-8.21-1.78,21.77-13.38,29.26-21.77,2.32-23.37-5-5-2-8-.36-8.75,8.58-10.89,9-3.21-.51-2.68-5.39-1.07-12.91-5.71-15.76-10.7-3.57-10.7-6.6.53-3.57,6.07-4.11,13.38-4.64,13-8,.36-3-2.32-5.53S142.15,89.65,142.15,89.65ZM145.36,95s1.32,5.71,3.78,5.36,1.75-2.5,2.82-5.36,2.68-5.88,4.82-7,1.61-3.57,0-3.22S145.88,87.27,145.36,95Zm36.58,47.11c1.43-.53,4.82-6.07,4.82-7.32s-17.49,0-17.49,0C170.17,144.07,180.51,142.65,181.94,142.11Zm-53.53-15.52s-.71,2.85-2,3.57-1.79,2.28-2,4.08a2.64,2.64,0,0,0,2,2.7c.18-.18,2.5-2.5,2.68-3.57S131.8,125.87,128.41,126.59ZM95.22,156.74c0,1.43,6.07.36,7.85-.53s2.68-2.5,1.61-4.29-9.46,0-9.46,0ZM86.48,179.4c0,3.57,7,2.68,11.24.18s5.18.18,10,2,7,8.39,9.46,11.6,5.17,2.86,5.89,1.53,4.1-1,7.12-.1,11.44-4.28,2.51-12.31-2-22.13.18-26.59,2.68-.36,2.57,1.77-.07,5,2.25,5.9a2.22,2.22,0,0,0,2.68-3.39c-1.43-1.78-1.07-3.39-1.43-7.13s1.43-7.32,1.43-13.21-4.46-12.84-4.93-13.08-2.39-.12-2.57,4-7.13,8.39-8.4,9.1-8.55.72-11.76,2.91-3.39,4.23-3.21,8.61-5.18,7.22-7.32,8.82-7.31,2-11.06,3.75-4.64,6.78-4.64,6.78C82.91,173.87,86.48,175.83,86.48,179.4Zm15.88,4.29s.93,6.78,2.78,8.56,5.79,2.14,5.25-1.43S102.36,183.69,102.36,183.69Zm29.26-13.92c-.35,2.67,3.22,4.28,5.36,3.21s1.78-3.75,0-5.17-3.39-6.76-3.39-6.76S132,167.09,131.62,169.77Z"/>
  </g>
</svg>
