<svg  id="ariessvg" xmlns="http://www.w3.org/2000/svg" xmlns:xlink="http://www.w3.org/1999/xlink" viewBox="0 0 286.22 275.87">
  <defs>
    <style>
      .cls-1 {
        fill: url(#linear-gradient);
      }

      .cls-2 {
        fill: #beead7;
      }

      .cls-3 {
        fill: url(#linear-gradient-2);
      }

      .cls-4 {
        fill: url(#linear-gradient-3);
      }

      .cls-5 {
        fill: #57d6c7;
      }

      .cls-6 {
        fill: #fff;
      }


      #ear{
      animation: ear 2s ease-in-out infinite alternate;
      }

      @keyframes ear{
        from{
              transform: translateY(0%);
        }

        to{
              transform: translateY(7%);
        }
      }

 

    </style>
    <linearGradient id="linear-gradient" x1="143.11" x2="143.11" y2="275.87" gradientTransform="translate(5.17 281.04) rotate(-90)" gradientUnits="userSpaceOnUse">
      <stop offset="0" stop-color="#f4fbf8"/>
      <stop offset="0.28" stop-color="#f1faf6"/>
      <stop offset="0.45" stop-color="#e9f7f1"/>
      <stop offset="0.6" stop-color="#daf1e7"/>
      <stop offset="0.74" stop-color="#c5e9da"/>
      <stop offset="0.86" stop-color="#aadec8"/>
      <stop offset="0.98" stop-color="#89d1b3"/>
      <stop offset="1" stop-color="#81ceae"/>
    </linearGradient>
    <linearGradient id="linear-gradient-2" x1="143.11" y1="14.09" x2="143.11" y2="262.48" gradientUnits="userSpaceOnUse">
      <stop offset="0.03" stop-color="#fff"/>
      <stop offset="0.16" stop-color="#e4fbf8"/>
      <stop offset="0.4" stop-color="#e1faf6"/>
      <stop offset="0.56" stop-color="#d9f6f0"/>
      <stop offset="0.69" stop-color="#caefe4"/>
      <stop offset="0.81" stop-color="#b5e6d5"/>
      <stop offset="0.92" stop-color="#9ad9c1"/>
      <stop offset="1" stop-color="#81ceae"/>
    </linearGradient>
    <linearGradient id="linear-gradient-3" x1="143.11" y1="38.15" x2="143.11" y2="237.72" gradientUnits="userSpaceOnUse">
      <stop offset="0" stop-color="#81ceae"/>
      <stop offset="0.1" stop-color="#9ddac2"/>
      <stop offset="0.23" stop-color="#b8e6d6"/>
      <stop offset="0.37" stop-color="#cdefe5"/>
      <stop offset="0.53" stop-color="#dcf6f0"/>
      <stop offset="0.71" stop-color="#e4faf6"/>
      <stop offset="1" stop-color="#e7fbf8"/>
    </linearGradient>
  </defs>
  <g id="outer_2">
    <rect id="outer_board_2" class="cls-1" x="5.17" y="-5.17" width="275.87" height="286.22" rx="54.56" transform="translate(281.04 -5.17) rotate(90)"/>
  </g>
  <g id="outer">
    <rect id="outer_board" class="cls-2" x="5.57" y="5.56" width="275.07" height="264.76" rx="49.56"/>
  </g>
  <g id="inner_3">
    <ellipse id="inner_circle_3" class="cls-3" cx="143.11" cy="138.28" rx="127.51" ry="124.2"/>
  </g>
  <g id="inner_2">
    <ellipse id="inner_circle_2" class="cls-4" cx="143.11" cy="137.94" rx="101.93" ry="99.79"/>
  </g>
  <g id="inner">
    <ellipse id="inner_circle" class="cls-5" cx="143.11" cy="137.94" rx="83.33" ry="81.58"/>
  </g>
  <g id="aries">
    <path id="face" class="cls-6" d="M80.65,111.45c1.66-4.09,17.64-20.65,32.13-19.61s25.17,13.32,27.22,17,3.55,5.74,3.85,2.74,15.43-20.79,32.8-19.7,28,17.64,28.84,21.35-3.68-1.11-3.68-1.11c-18.23-18.23-40.07,12.17-40.62,13.68a3.38,3.38,0,0,1-2.73,2.19c-1.09.27-7.66-5.61-8.34-6s-2.6-.69-2.46.14,7,7.24,10.53,7.93,9.57,4.65,11.07,5.79.28,3-.27,2.55-4.51-.27-6.84.27-3.69,5.88-4.1,7.8,6.29.68,7.66.68,1.09-1.5,2.32-2,1.37,2.17,1,3.81,1,1.64,1.91,6.43-7.11,13.4-9,14.77-1.78,7.11-1.23,8.88-4.24,4.24-4.79,4-6,.55-8.34,1-3.15-1.58-3.67-2.94.93-2.88,2.3-3,6.29-2.87,5.75-4.65-17.78-1-18.55,0-.33,1.37.9,2.19,3.15.68,4.65,1.09,3,2.6,2.74,5.61-4.79,1.23-9.57.82-7-5.06-6.7-5.75.54-6.29-1-6.7-9-9.3-8.89-10.53-.82-5.47-.27-7.11,1.64-1.37,1.64-1.37c1.77-.82.82-3.41-.82-5.19s1-1.92,3.14-.41,4.38,1.09,6.7,1.36.69-3.14.41-5.19-3.69-3.56-5.06-4.1-4.1.54-5.06,0,0-2.47.41-3.42,7.8-4.65,10.12-4.52,10.67-6.29,11.22-7.38-1.3-1.64-1.3-1.64S126,131,124.75,126.49,109.57,111.11,102.19,107s-21.54,8-21.54,8C77.93,115.6,80.65,111.45,80.65,111.45Z"/>
    <path id="ear" class="cls-6" d="M78,146.29c1.64-.11,4.21,3,6.36,4.1s5.23,7.79,10.46,7.9,4.41,1.33,9.33,4.41,4,2.05,0-5S89.06,146.9,87.42,146s-1.54-1.95-.72-2,6.66,4,3.79-1.64,0-21.13,0-21.13c-.23-11.11-9.23-3.28-11.69,1.13s-1.33,17.23-1.33,19.07S75,142.8,75,142.8C73.88,144.24,76.34,146.39,78,146.29Zm133.23-2.65s-2.46.41-2.46-1.43,1.13-14.67-1.33-19.08S196,110.9,195.73,122c0,0,2.87,15.49,0,21.13s3,1.54,3.79,1.64.92,1.13-.72,2-12.72,4.62-16.72,11.69-4.92,8.11,0,5,4.11-4.31,9.34-4.41,8.31-6.77,10.46-7.9,4.72-4.2,6.36-4.1S212.34,145.08,211.21,143.64Z"/>
  </g>
</svg>
