<svg id="cancersvg" xmlns="http://www.w3.org/2000/svg" xmlns:xlink="http://www.w3.org/1999/xlink" viewBox="0 0 286.22 275.87">
  <defs>
    <style>
      .cls-1 {
        fill: url(#linear-gradient);
      }

      .cls-2 {
        fill: #7abf86;
      }

      .cls-3 {
        fill: url(#linear-gradient-2);
      }

      .cls-4 {
        fill: url(#linear-gradient-3);
      }

      .cls-5 {
        fill: #417c52;
      }

      .cls-6 {
        fill: #fff;
      }
 

      #Cancer_sketch{
      animation: scaleDrew 5s ease-in-out infinite;
      transform-origin: center;
      }

      @keyframes scaleDrew {

    0% {
      transform: scale(1);
    }

    25% {
      transform: scale(1.5);
    }

    50% {
      transform: scale(1);
    }

    75% {
      transform: scale(1.5);
    }
  }






    </style>
    <linearGradient id="linear-gradient" x1="143.11" x2="143.11" y2="275.87" gradientTransform="translate(5.17 281.04) rotate(-90)" gradientUnits="userSpaceOnUse">
      <stop offset="0" stop-color="#cbead0"/>
      <stop offset="0.32" stop-color="#caeacd"/>
      <stop offset="0.52" stop-color="#c7e9c5"/>
      <stop offset="0.69" stop-color="#c1e7b6"/>
      <stop offset="0.85" stop-color="#b9e4a1"/>
      <stop offset="0.99" stop-color="#aee086"/>
      <stop offset="1" stop-color="#ade083"/>
    </linearGradient>
    <linearGradient id="linear-gradient-2" x1="143.11" y1="13.39" x2="143.11" y2="262.48" gradientUnits="userSpaceOnUse">
      <stop offset="0" stop-color="#d2ead1"/>
      <stop offset="0.31" stop-color="#cfe9cf"/>
      <stop offset="0.51" stop-color="#c7e4c6"/>
      <stop offset="0.68" stop-color="#b8dcb8"/>
      <stop offset="0.83" stop-color="#a3d1a5"/>
      <stop offset="0.97" stop-color="#88c28c"/>
      <stop offset="1" stop-color="#82bf86"/>
    </linearGradient>
    <linearGradient id="linear-gradient-3" x1="143.11" y1="38.15" x2="143.11" y2="237.72" gradientUnits="userSpaceOnUse">
      <stop offset="0" stop-color="#7abf86"/>
      <stop offset="0.08" stop-color="#80c28c"/>
      <stop offset="1" stop-color="#cbead0"/>
    </linearGradient>
  </defs>
  <g id="outer_2">
    <rect id="outter_board_2" class="cls-1" x="5.17" y="-5.17" width="275.87" height="286.22" rx="54.56" transform="translate(281.04 -5.17) rotate(90)"/>
  </g>
  <g id="outer">
    <rect id="outer_board" class="cls-2" x="5.57" y="5.56" width="275.07" height="264.76" rx="49.56"/>
  </g>
  <g id="inner_2">
    <ellipse id="inner_circle_3" class="cls-3" cx="143.11" cy="137.94" rx="127.51" ry="124.55"/>
  </g>
  <g id="inner_2-2" data-name="inner_2">
    <ellipse id="inner_circle_2" class="cls-4" cx="143.11" cy="137.94" rx="101.93" ry="99.79"/>
  </g>
  <g id="inner">
    <ellipse id="inner_circle" class="cls-5" cx="143.11" cy="137.94" rx="83.33" ry="81.58"/>
  </g>
  <g id="cancer">
    <path id="Cancer_sketch" class="cls-6" d="M143.11,125.31v53.13c-1.29.83-17.71-1.85-16.28-4.24.64-1.07-2.22-1.31-3-.58a23.17,23.17,0,0,1-8.27,3.65c-3,.44-14.93,11.53-15.08,16.93s-1.62-2.92,0-7.59,5.16-13.14,15.08-18.1c0,0,3.39-1.6-.45-1.9S107.62,170,105,170s-7.83.44-8.42,2.34S82.2,189.24,81.31,189.38s4.29-13.72,9-18.53,9.91-9.61,13.16-9.55,5.76.36,6.06-.67a1.93,1.93,0,0,0-2.37-2.48c-2.22.29-13.15,1-18.18-2.34S75,144.14,75,139c0,0,3.25.41,3.54,1.59S90.62,151,102.15,150.85s2.66-1.35-.89-2.87-18.77-10.71-21.58-19.76S77.32,118,77.32,118s7.83,12.4,10.34,14.3,11.09,8,17.15,8.31-.3-.86-3.4-3.78-2.81-8-4.44-8-2.06-15.47-.88-17.81,2.36-2.77,2.66-4.67,12.92-22.68,24.83-26.42c0,0,2,1,.29,2.34S113.53,93.48,114,99s-1.63,7.45-1.77,8-.15,1.9.44,1.9,2.36-3.36,3.69-6.13,1.19-5,2.52-5.55,1.62-1,1.62-2.63S123,86.33,123,86.33s1.93,7.45,1.33,11.68S118.55,122,115.6,123.7s-4.88,2.19-4,3.94.88,1.61,1,4.67,0,5.26,2.36,4.23,3.68-5,5.92-5.54C122.82,130.51,126.48,124.55,143.11,125.31Zm0,0v53.13c1.3.87,17.1-2.22,16.28-4.24-.47-1.15,2.22-1.31,3-.58a23.17,23.17,0,0,0,8.27,3.65c3,.44,14.93,11.53,15.08,16.93s1.62-2.92,0-7.59-5.16-13.14-15.08-18.1c0,0-3.4-1.6.45-1.9S178.6,170,181.26,170s7.84.44,8.43,2.34,14.33,16.93,15.22,17.07-4.29-13.72-9-18.53-9.9-9.61-13.15-9.55-5.76.36-6.06-.67a1.93,1.93,0,0,1,2.37-2.48c2.21.29,13.15,1,18.17-2.34s14-11.67,14-16.78c0,0-3.25.41-3.54,1.59S195.6,151,184.07,150.85s-2.66-1.35.89-2.87,18.77-10.71,21.57-19.76S208.9,118,208.9,118s-7.83,12.4-10.35,14.3-11.08,8-17.14,8.31.3-.86,3.4-3.78,2.81-8,4.43-8,2.07-15.47.89-17.81-2.36-2.77-2.66-4.67-12.92-22.68-24.83-26.42c0,0-2,1-.29,2.34s10.34,11.23,9.9,16.78,1.62,7.45,1.77,8,.15,1.9-.44,1.9-2.37-3.36-3.7-6.13-1.18-5-2.51-5.55-1.62-1-1.62-2.63-2.52-8.32-2.52-8.32S161.31,93.78,161.9,98s5.77,23.94,8.72,25.69,4.88,2.19,4,3.94-.88,1.61-1,4.67,0,5.26-2.37,4.23-3.74-4.77-5.91-5.54C163.49,130.35,159.84,124.88,143.11,125.31Z"/>
  </g>
</svg>
