<svg id="capricornsvg" xmlns="http://www.w3.org/2000/svg" xmlns:xlink="http://www.w3.org/1999/xlink" viewBox="0 0 286.22 275.87">
  <defs>
    <style>
      .cls-1 {
        fill: url(#linear-gradient);
      }

      .cls-2 {
        fill: #b7bed1;
      }

      .cls-3 {
        fill: url(#linear-gradient-2);
      }

      .cls-4 {
        fill: url(#linear-gradient-3);
      }

      .cls-5 {
        fill: #6c80a8;
      }

      .cls-6 {
        fill: #fff;
      }
 
#left_ear{
      animation: ear 2s ease-in-out infinite alternate;
      }

      @keyframes ear{
        from{
              transform: translateY(0%);
        }

        to{
              transform: translateY(7%);
        }
      }
#right_ear{
      animation: ear 2s ease-in-out infinite alternate;
      }

      @keyframes ear{
        from{
              transform: translateY(0%);
        }

        to{
              transform: translateY(7%);
        }
      }



    </style>
    <linearGradient id="linear-gradient" x1="143.11" y1="0.37" x2="143.11" y2="276.24" gradientTransform="translate(4.81 281.41) rotate(-90)" gradientUnits="userSpaceOnUse">
      <stop offset="0" stop-color="#6c80a8"/>
      <stop offset="0" stop-color="#e1e0e1"/>
      <stop offset="1" stop-color="#6c80a8"/>
    </linearGradient>
    <linearGradient id="linear-gradient-2" x1="143.11" y1="12.92" x2="143.11" y2="262.95" gradientUnits="userSpaceOnUse">
      <stop offset="0" stop-color="#dfdfe0"/>
      <stop offset="0.24" stop-color="#dddcde"/>
      <stop offset="0.4" stop-color="#d4d4d8"/>
      <stop offset="0.53" stop-color="#c7c5cd"/>
      <stop offset="0.64" stop-color="#b3b0be"/>
      <stop offset="0.75" stop-color="#9a95aa"/>
      <stop offset="0.86" stop-color="#7b7391"/>
      <stop offset="0.95" stop-color="#584c75"/>
      <stop offset="1" stop-color="#423564"/>
    </linearGradient>
    <linearGradient id="linear-gradient-3" x1="143.11" y1="38.51" x2="143.11" y2="238.09" gradientUnits="userSpaceOnUse">
      <stop offset="0" stop-color="#423564"/>
      <stop offset="0.05" stop-color="#584c75"/>
      <stop offset="0.14" stop-color="#7b7391"/>
      <stop offset="0.25" stop-color="#9a95aa"/>
      <stop offset="0.36" stop-color="#b3b0be"/>
      <stop offset="0.47" stop-color="#c7c5cd"/>
      <stop offset="0.6" stop-color="#d4d4d8"/>
      <stop offset="0.76" stop-color="#dddcde"/>
      <stop offset="1" stop-color="#dfdfe0"/>
    </linearGradient>
  </defs>
  <g id="outer_2">
    <rect id="outer_board_2" class="cls-1" x="5.17" y="-4.81" width="275.87" height="286.22" rx="54.56" transform="translate(281.41 -4.81) rotate(90)"/>
  </g>
  <g id="outer">
    <rect id="outer_board" class="cls-2" x="5.57" y="5.92" width="275.07" height="264.76" rx="49.56"/>
  </g>
  <g id="inner_3">
    <ellipse id="inner_circle_3" class="cls-3" cx="143.11" cy="137.94" rx="127.35" ry="125.02"/>
  </g>
  <g id="inner_2">
    <ellipse id="inner_circle_2" class="cls-4" cx="143.11" cy="138.3" rx="101.93" ry="99.79"/>
  </g>
  <g id="inner">
    <ellipse id="inner_circle" class="cls-5" cx="143.11" cy="138.3" rx="83.33" ry="81.58"/>
  </g>
  <g id="capricorn">
    <path id="face" class="cls-6" d="M125.75,116.32s.55-1.74,1.74-.95,1,1.51,2.3,1.74a6.15,6.15,0,0,0,4-1c.56-.53,1-3,0-2.28s-2.69,3.31-5.71-.13-9.35-13.27-3.72-22.86,5.15-4.13,5.15-4.13A21,21,0,0,0,128.21,96c.63,4.6,3.14,11.34,7.59,13.24s16,2.26,19.36-2.06c0,0,4-3.25,3.57-11.26s-1.27-10.75-1.27-10.75.22-1.31,1.3,0,6.87,8.21,7.27,16.3S158,116.8,155.48,115s-2.38-.47-2,.32,3.33,2.71,4.68,1.87,2.77-2.66,3.49-2.66-.16,9.51.55,10.07,4.22,2.64,3,8.17a7,7,0,0,1-2.14,1.74c-1.11.48-4.44,1.11-4.28,4.12s-.08,2.54.16,3,.87-2.86,1.51-2.22.79,2.15,1.58,2.26,2.3-1.07,2.46,2.57-3.25,13.56-5.55,12.85-5.15-5.55-5.39-9.12a17.38,17.38,0,0,0-1.35-5.87s.32,10.07,1.19,11.34.87,2,1.51,2.7.55,10.38.23,11.57-4,1.67-3.25,2.94a5.48,5.48,0,0,1,.64,3.33c-.16.24-1.19-.08-1.19.95s-.64,2.06-1.59,2-.55,7-.55,7a3.23,3.23,0,0,1,1.82,1.59,1.37,1.37,0,0,1-.48,2.14c-.31.16-.07,3.09-.39,3.33a2.67,2.67,0,0,1-3.41-.72c-1-1.58-.79-1.42-2.3-1.58s-1.75.79-2.62-.24-.63-6.9-1.27-3.81-1,1.11-1.11,2.62.8,2.93-.16,2.38-.55-.63-1.42-1-.87-.48-.87-2.22.15-2,.15-3-.39-1.27.4-1.51,1.11.08,1.19-1.27,1.19-1.59-.16-2.78-.79-.31-2.14-2.14-2.14-.95-1.9-2.69-.88-1.35.23-1.75,2-.63,1-1-.3,1-1.73-1.35-1.82-10.62-1.66-11.73a6.57,6.57,0,0,1,1.66-3.25c.56-.4.87-10.71.87-10.71s-1.42,8.65-2.14,9.76-2.22,7.85-4.76,3.25-5.63-7.62-5.31-12.06,1.11-3.25,3.09-3.88,3.81.08,2.46-2.62-3.57-3.57-5.47-5.15-2.46-2.54-1.11-4.2,4-2.07,3.81-5.48A40.41,40.41,0,0,1,125.75,116.32Z"/>
    <path id="left_ear" class="cls-6" d="M96.09,142.26c2.77-.32,10.86-6.58,11.26-7s6.58-.24,6.58-.24l.08,1s.87.8-4.68,1.5-11,6.52-11,6.52,5.63-.09,7.29,0a3.91,3.91,0,0,0,3.26-1.58c.47-.64,4.44.71,4.83,0s1.83-.64,3.17-.8,2.15-2.94,2.15-2.94-3.81.41-4.05-.62,3.65-.64,4.05-.88.39-6.1.39-6.1-3.88-.24-9.12,0-9.75,4.83-11.73,6.42-12.61,1.11-12.61,1.11C78.25,139.48,93.31,142.58,96.09,142.26Z"/>
    <path id="right_ear" class="cls-6" d="M200.28,139.06s-10.63.47-12.61-1.11-6.5-6.19-11.73-6.43-9.12,0-9.12,0,0,5.87.39,6.11,4.28-.16,4,.87-4,.62-4,.62.8,2.79,2.14,2.95,2.78.08,3.18.79,4.36-.63,4.83,0a3.88,3.88,0,0,0,3.25,1.59c1.67-.08,7.3,0,7.3,0s-5.47-5.81-11-6.51-4.68-1.5-4.68-1.5l.08-1s6.18-.16,6.58.24,8.48,6.66,11.26,7S208,139.85,200.28,139.06Z"/>
  </g>
</svg>
