<svg id="leosvg" xmlns="http://www.w3.org/2000/svg" xmlns:xlink="http://www.w3.org/1999/xlink" viewBox="0 0 286.22 275.87">
  <defs>
    <style>
      .cls-1 {
        fill: url(#linear-gradient);
      }

      .cls-2 {
        fill: #bd5542;
      }

      .cls-3 {
        fill: url(#linear-gradient-2);
      }

      .cls-4 {
        fill: url(#linear-gradient-3);
      }

      .cls-5 {
        fill: #9f321f;
      }

      .cls-6 {
        fill: #fff;
      }
 
      #hair{
      animation: hair 1s ease-in-out infinite alternate;
      }

      @keyframes hair{
        from{
              transform: translateY(0%);
        }

        to{
              transform: translateY(7%);
        }
      }

    </style>
    <linearGradient id="linear-gradient" x1="143.11" x2="143.11" y2="275.87" gradientTransform="translate(5.17 281.04) rotate(-90)" gradientUnits="userSpaceOnUse">
      <stop offset="0" stop-color="#ed9f91"/>
      <stop offset="0.43" stop-color="#ed9d8f"/>
      <stop offset="0.66" stop-color="#eb9687"/>
      <stop offset="0.84" stop-color="#e88a79"/>
      <stop offset="0.99" stop-color="#e47866"/>
      <stop offset="1" stop-color="#e47765"/>
    </linearGradient>
    <linearGradient id="linear-gradient-2" x1="143.11" y1="13.39" x2="143.11" y2="262.48" gradientUnits="userSpaceOnUse">
      <stop offset="0" stop-color="#fff"/>
      <stop offset="0.05" stop-color="#fdf3f1"/>
      <stop offset="0.15" stop-color="#f7d3cd"/>
      <stop offset="0.28" stop-color="#eda092"/>
      <stop offset="0.28" stop-color="#ed9f91"/>
      <stop offset="0.47" stop-color="#ed9f91"/>
      <stop offset="0.59" stop-color="#eb9b8d"/>
      <stop offset="0.71" stop-color="#e49182"/>
      <stop offset="0.83" stop-color="#d87e6e"/>
      <stop offset="0.94" stop-color="#c76553"/>
      <stop offset="1" stop-color="#bd5542"/>
    </linearGradient>
    <linearGradient id="linear-gradient-3" x1="143.11" y1="38.15" x2="143.11" y2="237.72" gradientUnits="userSpaceOnUse">
      <stop offset="0" stop-color="#bd5542"/>
      <stop offset="0.02" stop-color="#c05a47"/>
      <stop offset="0.11" stop-color="#d07362"/>
      <stop offset="0.22" stop-color="#dd8677"/>
      <stop offset="0.34" stop-color="#e69486"/>
      <stop offset="0.49" stop-color="#eb9d8e"/>
      <stop offset="0.71" stop-color="#ed9f91"/>
      <stop offset="0.93" stop-color="#f7d6d0"/>
      <stop offset="0.99" stop-color="#fff"/>
    </linearGradient>
  </defs>
  <g id="outer_2">
    <rect id="outer_board_2" class="cls-1" x="5.17" y="-5.17" width="275.87" height="286.22" rx="54.56" transform="translate(281.04 -5.17) rotate(90)"/>
  </g>
  <g id="outer">
    <rect id="outer_board" class="cls-2" x="5.57" y="5.56" width="275.07" height="264.76" rx="49.56"/>
  </g>
  <g id="inner_3">
    <ellipse id="inner_circle_3" class="cls-3" cx="143.11" cy="137.94" rx="127.51" ry="124.55"/>
  </g>
  <g id="inner_2">
    <ellipse id="inner_circle_2" class="cls-4" cx="143.11" cy="137.94" rx="101.93" ry="99.79"/>
  </g>
  <g id="inner">
    <ellipse id="inner_circle" class="cls-5" cx="143.11" cy="137.94" rx="83.33" ry="81.58"/>
  </g>
  <g id="leo">
    <path id="hair" class="cls-6" d="M160.5,89.83s-1.6-10.35,6.61-11.75,15.22,1.23,18,5.88,1.72,23.59,3.4,26.39.81,5.62,1.41,6.14-6-.87-7.21-8.94-6.61-24-11.42-22.28-6,5.26-6,5.79S163.91,101.41,160.5,89.83Z"/>
    <path id="face" class="cls-6" d="M124.45,73c-3.61,2.28-2,.35-2.4,2.46s0,2.1-.61,6.84,0,0-2.4-1.75-1.4,0-3.8,1.75.2,1.4-.2,4,1.6,4,5.2,9,1.4,2.63-1,4.76-4.33,3.86-4.41,5.24-.2,10-.6,12.45S97,136,94,138.42s-4.2,5.61-3.8,8.42,3.8,1.75,4.81,1.4,2.2-1.23,3.4-1.4a17.73,17.73,0,0,1,6.21,0c2.6.53,0,1.75-1.6,2.81a40.35,40.35,0,0,1-4.81,2.8c-1.8.88-1,5.79-1.4,7.9s5.41,5.26,7.61,5.78,1.2-1.57,3-2,2.41-.13,3,1.62,15.22,0,17-.17,11.82.17,12,.7-1.2,3.51-2.8,4.38-6-1.75-7.61-2.8-19.83-.88-20.83-.53-1.41,1.41-3.21,2.28-4.41,4.21-5.61,6,1.4,3.33,3,2.63,3,0,1.2,3,3,3.33,4.61,1.05,2.6-1.93,2.8,0,.8,4.21,1.6,2.81,1.8,3,2.61,5.09,1.4-2.11,1.8-4.57,1.2,1.41,2.4,3.69,3.81,1.05,4.7-.53-.09-2.45,1.51-2.45,2.81-3.16,4.41-4.74,4,.88,1.78,1.58,1.42,8.07.82,12.1,4.41,5.09,5.41,3,3.8-2.45,2.8,1.93,9.42,15.26,11.22,13.69-1-3.34-2-6,0-15.61,1.2-15.79.8-5.61.2-8.41-6.21,4.2-10.22,8.24-2.2-.88-2-8.42,4.81-6.84,13.22-10.52,5.81-11.23,2.4-16-2.4-9.29-1.8-13.5,7-7.72,9.62-10.18,7.41-6.31.8-20.17-20-21.57-23.24-23.5-7.61,2.1-9.92,4-2.9.88-2.5,0-2.6-.7-3.6-4,5.21.87,6.61.87,2.6-2.8,1-3.5-2.38-3.16-2-5.79,3.2.87,5.2,1.75,1.41-2.81,1.41-2.81l-2.61-1.4s1.61-1,0-4.38a25.87,25.87,0,0,1-2-7.37C127.22,67.38,128.05,70.71,124.45,73Z"/>
    <path id="eye" class="cls-6" d="M126.45,126a10.08,10.08,0,0,0,3-1.93c1.2-1.23-1.24-.88,2.38-1.58s6-.53,7.43-1.23a1.5,1.5,0,0,0,0-2.81c-1.2-.35-2.4-2.26-3.2-1.83a3.17,3.17,0,0,1-2.72-.06c-.89-.39.48-1.09-1.51-1.26a3.56,3.56,0,0,0-3.36,1.32c-.23.43,1.44.25,0,1.48s-1,3.69-1,3.69l-1,.35-1.4.87S125.37,126.49,126.45,126Z"/>
  </g>
</svg>
