<svg id="librasvg" xmlns="http://www.w3.org/2000/svg" xmlns:xlink="http://www.w3.org/1999/xlink" viewBox="0 0 286.22 275.87">
  <defs>
    <style>
      .cls-1 {
        fill: url(#linear-gradient);
      }

      .cls-2 {
        fill: #a69aca;
      }

      .cls-3 {
        fill: url(#linear-gradient-2);
      }

      .cls-4 {
        fill: url(#linear-gradient-3);
      }

      .cls-5 {
        fill: #65338f;
      }

      .cls-6 {
        fill: #fff;
      }
 


      #left{
      animation: left 2s ease-in-out infinite alternate;
      }


      @keyframes left{
        from{
              transform: rotateZ(-5deg);
        }

        to{
              transform: rotateZ(5deg);
        }
      }
       #right{
      animation: right 2s ease-in-out infinite alternate;
      <!-- animation-direction:reverse; -->
      }


      @keyframes right{
        from{
              transform: rotateZ(5deg);
        }

        to{
              transform: rotateZ(-5deg);
        }
      }



    </style>
    <linearGradient id="linear-gradient" x1="143.11" x2="143.11" y2="275.87" gradientTransform="translate(5.17 281.04) rotate(-90)" gradientUnits="userSpaceOnUse">
      <stop offset="0" stop-color="#dbd0e6"/>
      <stop offset="0.27" stop-color="#d9cde5"/>
      <stop offset="0.45" stop-color="#d1c5e0"/>
      <stop offset="0.6" stop-color="#c4b6d7"/>
      <stop offset="0.73" stop-color="#b1a1cc"/>
      <stop offset="0.85" stop-color="#9986bd"/>
      <stop offset="0.96" stop-color="#7c65ab"/>
      <stop offset="1" stop-color="#7259a4"/>
    </linearGradient>
    <linearGradient id="linear-gradient-2" x1="143.11" y1="13.39" x2="143.11" y2="262.48" gradientUnits="userSpaceOnUse">
      <stop offset="0" stop-color="#f4e9f8"/>
      <stop offset="0.25" stop-color="#f2e6f6"/>
      <stop offset="0.42" stop-color="#eadef1"/>
      <stop offset="0.56" stop-color="#dccfe9"/>
      <stop offset="0.68" stop-color="#c9badc"/>
      <stop offset="0.8" stop-color="#b19fcd"/>
      <stop offset="0.9" stop-color="#937eb9"/>
      <stop offset="1" stop-color="#7259a4"/>
    </linearGradient>
    <linearGradient id="linear-gradient-3" x1="143.11" y1="38.15" x2="143.11" y2="237.72" gradientUnits="userSpaceOnUse">
      <stop offset="0" stop-color="#7259a4"/>
      <stop offset="0.1" stop-color="#937eb9"/>
      <stop offset="0.2" stop-color="#b19fcd"/>
      <stop offset="0.32" stop-color="#c9badc"/>
      <stop offset="0.44" stop-color="#dccfe9"/>
      <stop offset="0.58" stop-color="#eadef1"/>
      <stop offset="0.75" stop-color="#f2e6f6"/>
      <stop offset="1" stop-color="#f4e9f8"/>
    </linearGradient>
  </defs>
  <g id="outer_2">
    <rect id="outer_board_2" class="cls-1" x="5.17" y="-5.17" width="275.87" height="286.22" rx="54.56" transform="translate(281.04 -5.17) rotate(90)"/>
  </g>
  <g id="outer">
    <rect id="outer_board" class="cls-2" x="5.57" y="5.56" width="275.07" height="264.76" rx="49.56"/>
  </g>
  <g id="inner_3">
    <ellipse id="inner_circle_3" class="cls-3" cx="143.11" cy="137.94" rx="127.51" ry="124.55"/>
  </g>
  <g id="inner_2">
    <ellipse id="inner_circle_2" class="cls-4" cx="143.11" cy="137.94" rx="101.93" ry="99.79"/>
  </g>
  <g id="inner">
    <ellipse id="inner_circle" class="cls-5" cx="143.11" cy="137.94" rx="83.33" ry="81.58"/>
  </g>
  <g id="libra">
    <path id="right" class="cls-6" d="M146.91,76.53s.18,27.29.35,26.25,10.7-1.22,14.38,1.74,13.15,6.25,17.36,8,8.59-6.43,8.59-6.43,2.28,5.91.17,6.26-3.15,4.17-3.85,6.08,22.09,45.89,23.32,47.8,0,4.35,0,4.35c-2.07,5-12.8,18.6-28.41,18.77s-26.3-18.6-26.47-19.82,23-50.06,22.09-49.19-8.77-.87-14.73-6.25-12.62,2.43-13.85,4.17a5.14,5.14,0,0,1-2.81,2.08V76.53Zm10.87,91.95h20.34v-43.8Zm24.37-43.8v43.8h20.52Z"/>
    <path id="left" class="cls-6" d="M143.05,76.53v43.8a5.14,5.14,0,0,1-2.8-2.08c-1.22-1.74-7.87-9.56-13.82-4.17s-13.83,7.12-14.71,6.25,22.23,48,22.06,49.19-10.86,20-26.43,19.82S81.06,175.55,79,170.57c0,0-1.23-2.44,0-4.35s24-45.89,23.28-47.8-1.75-5.74-3.85-6.08.17-6.26.17-6.26,4.38,8.17,8.58,6.43,13.65-5,17.33-8,14.18-2.79,14.35-1.74.35-26.25.35-26.25Zm-35,48.15v43.8h20.3Zm-24.51,43.8H104v-43.8Z"/>
  </g>
</svg>
