<svg id="piscessvg" xmlns="http://www.w3.org/2000/svg" xmlns:xlink="http://www.w3.org/1999/xlink" viewBox="0 0 286.22 275.87">
  <defs>
    <style>
      .cls-1 {
        fill: url(#linear-gradient);
      }

      .cls-2 {
        fill: #eaa50d;
      }

      .cls-3 {
        fill: url(#linear-gradient-2);
      }

      .cls-4 {
        fill: url(#New_Gradient_Swatch_1);
      }

      .cls-5 {
        fill: #e9910d;
      }

      .cls-6 {
        fill: #fff;
      }
 
      #Pisces_Sketch{
      transform-origin: center;
      -webkit-transform: rotate(360deg);
      animation: rotation 10s linear infinite;}

      @-webkit-keyframes rotation{
      from {-webkit-transform: rotate(0deg);}
      to {-webkit-transform: rotate(360deg);}
      }
     



    </style>
    <linearGradient id="linear-gradient" x1="143.11" x2="143.11" y2="275.87" gradientTransform="translate(5.17 281.04) rotate(-90)" gradientUnits="userSpaceOnUse">
      <stop offset="0" stop-color="#e8e9b2"/>
      <stop offset="0.24" stop-color="#e8e9af"/>
      <stop offset="0.39" stop-color="#e8e8a7"/>
      <stop offset="0.52" stop-color="#e7e798"/>
      <stop offset="0.63" stop-color="#e6e683"/>
      <stop offset="0.74" stop-color="#e5e468"/>
      <stop offset="0.84" stop-color="#e4e146"/>
      <stop offset="0.94" stop-color="#e3de1f"/>
      <stop offset="1" stop-color="#e2dc00"/>
    </linearGradient>
    <linearGradient id="linear-gradient-2" x1="143.11" y1="13.39" x2="143.11" y2="262.48" gradientUnits="userSpaceOnUse">
      <stop offset="0" stop-color="#e8e9b2"/>
      <stop offset="0.24" stop-color="#e8e8af"/>
      <stop offset="0.4" stop-color="#e8e4a7"/>
      <stop offset="0.53" stop-color="#e8de98"/>
      <stop offset="0.65" stop-color="#e9d683"/>
      <stop offset="0.76" stop-color="#e9ca68"/>
      <stop offset="0.86" stop-color="#e9bd46"/>
      <stop offset="0.96" stop-color="#eaad1f"/>
      <stop offset="1" stop-color="#eaa50d"/>
    </linearGradient>
    <linearGradient id="New_Gradient_Swatch_1" data-name="New Gradient Swatch 1" x1="143.11" y1="38.15" x2="143.11" y2="237.72" gradientUnits="userSpaceOnUse">
      <stop offset="0" stop-color="#eaa50d"/>
      <stop offset="0.04" stop-color="#eaad1f"/>
      <stop offset="0.14" stop-color="#e9bd46"/>
      <stop offset="0.24" stop-color="#e9ca68"/>
      <stop offset="0.35" stop-color="#e9d683"/>
      <stop offset="0.47" stop-color="#e8de98"/>
      <stop offset="0.6" stop-color="#e8e4a7"/>
      <stop offset="0.76" stop-color="#e8e8af"/>
      <stop offset="1" stop-color="#e8e9b2"/>
    </linearGradient>
  </defs>
  <g id="outer_2">
    <rect id="outer_board_2" class="cls-1" x="5.17" y="-5.17" width="275.87" height="286.22" rx="54.56" transform="translate(281.04 -5.17) rotate(90)"/>
  </g>
  <g id="outer">
    <rect id="outer_board" class="cls-2" x="5.57" y="5.56" width="275.07" height="264.76" rx="49.56"/>
  </g>
  <g id="inner_3">
    <ellipse id="inner_circle_3" class="cls-3" cx="143.11" cy="137.94" rx="127.51" ry="124.55"/>
  </g>
  <g id="inner_2">
    <ellipse id="inner_circle_2" class="cls-4" cx="143.11" cy="137.94" rx="101.93" ry="99.79"/>
  </g>
  <g id="inner">
    <ellipse id="inner_circle" class="cls-5" cx="143.11" cy="137.94" rx="83.33" ry="81.58"/>
  </g>
  <g id="pisces">
    <path id="Pisces_Sketch" class="cls-6" d="M104.71,156.53c.51,1.52,3.21,8.1,1.18,11.14S90,172.4,85.63,170.88s-4.9-5.4-4.56-10.35,6.42-12.79,8.27-13.8.51-6.25.17-7.84-1.35,1.59-3.21,2.27-1.18-5.24-1-6.76,2.7-4.72,3.72-7.26,2.7-5.57.56-4.92-3.94-2.34-3.1-5.89,5.24-4,6.42-4.22,1.86-3.88,1.86-3.88c16.2-28.8,43.9-30.9,56.23-29.55S165.67,87,165.84,90.84s-8.1,7.76-12.12,8.9-4.77,3.76-7.47,4.61-2.53-.68-2.7-1.52-1.86.16-1.5,1.85,5.72,5.74,6.74,6.59,0,5.4-5.92,7.94-10.8,1.52-12.49-1,3.38-10.8,3-11.65-.66-1.69-1.16.68-6.25,10.13-9.46,11.65S103.87,140,101.33,144s0,6.23,0,6.23A60.44,60.44,0,0,1,104.71,156.53Zm45.06-69.72a4.57,4.57,0,1,0,4.85,4.56A4.72,4.72,0,0,0,149.77,86.81Zm0,2.13a2.43,2.43,0,1,0,2.43,2.43A2.43,2.43,0,0,0,149.77,88.94Zm31.74,34.33c-.51-1.52-3.21-8.1-1.19-11.14s15.88-4.73,20.27-3.21,4.9,5.4,4.56,10.34-6.42,12.79-8.28,13.81-.5,6.24-.17,7.84,1.36-1.6,3.21-2.27,1.19,5.23,1,6.75-2.71,4.73-3.72,7.26-2.7,5.58-.56,4.92,3.94,2.35,3.09,5.89-5.23,4-6.41,4.22-1.86,3.89-1.86,3.89c-16.2,28.8-43.91,30.9-56.23,29.55s-14.69-8.28-14.86-12.16,8.1-7.77,12.12-8.9,4.76-3.76,7.47-4.61,2.53.68,2.7,1.52,1.85-.17,1.5-1.86-5.72-5.74-6.74-6.58,0-5.41,5.91-7.94,10.81-1.52,12.5,1-3.38,10.81-3,11.66.66,1.68,1.17-.68,6.25-10.13,9.46-11.65,18.91-21.11,21.44-25.16,0-6.24,0-6.24A58.51,58.51,0,0,1,181.51,123.27ZM136.45,193a4.57,4.57,0,1,0-4.86-4.56A4.71,4.71,0,0,0,136.45,193Zm0-2.14a2.43,2.43,0,1,0-2.43-2.42A2.42,2.42,0,0,0,136.45,190.85Z"/>
  </g>
</svg>
