<svg id="sagittariussvg" xmlns="http://www.w3.org/2000/svg" xmlns:xlink="http://www.w3.org/1999/xlink" viewBox="0 0 286.22 275.87">
  <defs>
    <style>
      .cls-1 {
        fill: url(#linear-gradient);
      }

      .cls-2 {
        fill: #ff3347;
      }

      .cls-3 {
        fill: url(#linear-gradient-2);
      }

      .cls-4 {
        fill: url(#New_Gradient_Swatch_1);
      }

      .cls-5 {
        fill: #d22719;
      }

      .cls-6 {
        fill: #fff;
      }
 
      #arrow{
      animation: move 3s ease-in-out infinite alternate;
      }


      @keyframes move{
        0%{
              transform: translateX(200px););
        }

        25%{
              transform: translateX(-200px););
        }

        50%{
              transform: translateX(200px););
        }

        75%{
              transform: translateX(-200px);
        }

        100%{
              transform: translateX(0px););
        }
      }



    </style>
    <linearGradient id="linear-gradient" x1="143.11" x2="143.11" y2="275.87" gradientTransform="translate(5.17 281.04) rotate(-90)" gradientUnits="userSpaceOnUse">
      <stop offset="0" stop-color="#f1bdc1"/>
      <stop offset="0.31" stop-color="#f1bbbe"/>
      <stop offset="0.51" stop-color="#f0b3b6"/>
      <stop offset="0.68" stop-color="#eea6a7"/>
      <stop offset="0.83" stop-color="#eb9492"/>
      <stop offset="0.97" stop-color="#e87c77"/>
      <stop offset="1" stop-color="#e77771"/>
    </linearGradient>
    <linearGradient id="linear-gradient-2" x1="143.11" y1="13.39" x2="143.11" y2="262.48" gradientUnits="userSpaceOnUse">
      <stop offset="0" stop-color="#f1bdc1"/>
      <stop offset="0.26" stop-color="#f1babf"/>
      <stop offset="0.43" stop-color="#f0b2b7"/>
      <stop offset="0.57" stop-color="#eea3aa"/>
      <stop offset="0.69" stop-color="#eb8e97"/>
      <stop offset="0.81" stop-color="#e8737f"/>
      <stop offset="0.92" stop-color="#e45262"/>
      <stop offset="1" stop-color="#e03448"/>
    </linearGradient>
    <linearGradient id="New_Gradient_Swatch_1" data-name="New Gradient Swatch 1" x1="143.11" y1="38.15" x2="143.11" y2="237.72" gradientUnits="userSpaceOnUse">
      <stop offset="0" stop-color="#e03448"/>
      <stop offset="0.08" stop-color="#e45262"/>
      <stop offset="0.19" stop-color="#e8737f"/>
      <stop offset="0.31" stop-color="#eb8e97"/>
      <stop offset="0.43" stop-color="#eea3aa"/>
      <stop offset="0.57" stop-color="#f0b2b7"/>
      <stop offset="0.74" stop-color="#f1babf"/>
      <stop offset="1" stop-color="#f1bdc1"/>
    </linearGradient>
  </defs>
  <g id="outer_2">
    <rect id="outer_board_2" class="cls-1" x="5.17" y="-5.17" width="275.87" height="286.22" rx="54.56" transform="translate(281.04 -5.17) rotate(90)"/>
  </g>
  <g id="outer">
    <rect id="outer_board" class="cls-2" x="5.57" y="5.56" width="275.07" height="264.76" rx="49.56"/>
  </g>
  <g id="inner_3">
    <ellipse id="inner_circle_3" class="cls-3" cx="143.11" cy="137.94" rx="127.51" ry="124.55"/>
  </g>
  <g id="inner_2">
    <ellipse id="inner_circle_2" class="cls-4" cx="143.11" cy="137.94" rx="101.93" ry="99.79"/>
  </g>
  <g id="inner">
    <ellipse id="inner_circle" class="cls-5" cx="143.11" cy="137.94" rx="83.33" ry="81.58"/>
  </g>
  <g id="sagittarius">
    <g id="hand">
      <path class="cls-6" d="M133.49,99.75c2-1.2,2.4-6.16,2.57-6.84s12.31-23.09,14-24-1.71,7-1.71,8.55-7.18,30.1-7.18,35.92l-2.05,12.48s8.55-.51,10.94,1,12,13.68,16.59,14.7,24.63-5.81,33.86,3.08,4.79,16.08.51,22.41S185,176,176.76,174.31s-15.39.85-16.42,1.71-4.59-.17-5,1.2S142,178.58,142,178.58s2.73,23.93,7.19,28.39c0,0-11.57-6.05-14-21.89l-2-8.21s-11.63-1.53-15.9-1.53-3.54-1.2-3.88-2.23-1.94-4.79-.4-5.3,1.88-2.05.51-2.74-5.81-3.59-4.79-5.47,4.45-3.08,2.06-4.27-4.79-6.5-2.91-8.55,5.47-3.6,4.1-4.79-3.07-5-1.19-6.84,5-3.42,6.84-2.91,4.61.68,5.3-1.71,4.1-3.93,6.16-4.62Z"/>
      <path class="cls-6" d="M133.45,99.72a4.23,4.23,0,0,0,1.43-2,14.84,14.84,0,0,0,.67-2.43c.19-.84.24-1.65.45-2.52.36-.78.76-1.52,1.15-2.28q2.34-4.5,4.81-8.94c1.64-3,3.3-5.92,5.06-8.82.44-.72.89-1.44,1.36-2.15.24-.35.48-.71.75-1,.13-.18.27-.35.42-.52a1.09,1.09,0,0,1,.79-.41.6.6,0,0,1,.51.45,1.53,1.53,0,0,1,0,.41,3.72,3.72,0,0,1-.08.68,13,13,0,0,1-.29,1.27c-.23.82-.49,1.63-.74,2.44s-.52,1.61-.75,2.41a8,8,0,0,0-.26,1.17,9.1,9.1,0,0,1-.18,1.29c-.32,1.68-.69,3.33-1.05,5l-2.19,9.91c-.73,3.31-1.44,6.61-2.1,9.93-.33,1.65-.65,3.31-.93,5a39,39,0,0,0-.59,5v.09l-2,12.49-.61-.68c1.65-.09,3.28-.11,4.93-.06a22.45,22.45,0,0,1,5,.58,4.92,4.92,0,0,1,1.27.5,6.68,6.68,0,0,1,1.07.82c.61.57,1.19,1.16,1.75,1.74l3.37,3.53a70.43,70.43,0,0,0,7,6.64,16.83,16.83,0,0,0,1.93,1.31,4.36,4.36,0,0,0,2,.67,28.63,28.63,0,0,0,4.72-.37c6.4-.88,13-1.94,19.61-.85a17.8,17.8,0,0,1,9.13,4.15,23.07,23.07,0,0,1,3.32,3.79,14.7,14.7,0,0,1,2.2,4.62,12.35,12.35,0,0,1,.18,5.17,17.68,17.68,0,0,1-1.66,4.81,40.38,40.38,0,0,1-2.54,4.27l-.68,1c-.25.36-.52.71-.8,1A15,15,0,0,1,199,170.5a23.7,23.7,0,0,1-9.1,4.24,32.56,32.56,0,0,1-9.94.9,40,40,0,0,1-4.88-.72,28.51,28.51,0,0,0-4.71-.28,27.34,27.34,0,0,0-4.69.49,19.27,19.27,0,0,0-4.42,1.33l-.23.12a1.1,1.1,0,0,1-.14.09,2.27,2.27,0,0,1-.87.43,6.75,6.75,0,0,1-1.4.16,13.61,13.61,0,0,0-2.25.12.94.94,0,0,0-.27.11h0s0,0,0,0a.9.9,0,0,1-.13.26,1.37,1.37,0,0,1-.51.45,2.74,2.74,0,0,1-.39.19c-.25.09-.47.15-.69.21a21.14,21.14,0,0,1-2.52.39c-3.29.31-6.54.38-9.82.39l.81-.9c.57,4.86,1.31,9.72,2.27,14.52.49,2.4,1,4.78,1.72,7.11a35.19,35.19,0,0,0,1.19,3.41,10.47,10.47,0,0,0,1.71,2.93L153,210l-4.15-2.38a25.9,25.9,0,0,1-5.43-4.28,31.94,31.94,0,0,1-4.25-5.38,33.77,33.77,0,0,1-4.68-12.78l0,.06-2-8.21.54.48c-3.73-.5-7.47-.95-11.21-1.3l-2.8-.21c-.94-.07-1.83-.06-2.83-.1a10,10,0,0,1-1.5-.2,2.31,2.31,0,0,1-1.54-1,2.18,2.18,0,0,1-.27-.88,3.38,3.38,0,0,0-.12-.59l-.47-1.34a9,9,0,0,1-.58-3,2.28,2.28,0,0,1,.2-.91,1.43,1.43,0,0,1,.84-.76,1.59,1.59,0,0,0,.84-.58.66.66,0,0,0,.06-.73c-.13-.24-.43-.37-.91-.64a18.89,18.89,0,0,1-2.4-1.65,8.44,8.44,0,0,1-2-2.24,2.25,2.25,0,0,1-.25-1.79,4.12,4.12,0,0,1,.93-1.35,22.58,22.58,0,0,0,2-1.87c.09-.15.08-.19.07-.21a.65.65,0,0,0-.27-.26,2.2,2.2,0,0,0-.26-.15l-.35-.2a5.09,5.09,0,0,1-.62-.48,8.49,8.49,0,0,1-1.8-2.4,9.73,9.73,0,0,1-1-2.8,4.37,4.37,0,0,1,.43-3.1,6.1,6.1,0,0,1,1.06-1.13c.37-.32.75-.62,1.12-.91a18.18,18.18,0,0,0,2.12-1.72,1.11,1.11,0,0,0,.26-.42c0-.11,0-.11,0-.22l-.07-.07-.15-.14a3.58,3.58,0,0,1-.26-.29,5.41,5.41,0,0,1-.46-.61,8.06,8.06,0,0,1-1.16-2.75,4.38,4.38,0,0,1,.34-3.06,3.45,3.45,0,0,1,.5-.64c.18-.17.36-.35.54-.5a12.44,12.44,0,0,1,1.17-.89,11.36,11.36,0,0,1,2.6-1.32,5.09,5.09,0,0,1,3-.24,7.07,7.07,0,0,0,2.65.26,2.39,2.39,0,0,0,2-1.29,11.44,11.44,0,0,1,.57-1.32,5.31,5.31,0,0,1,.94-1.16,13.7,13.7,0,0,1,5-2.73l-.17.2Zm.08,0-4.43,26.15v0h0a13.42,13.42,0,0,0-4.89,2.7,5.7,5.7,0,0,0-.88,1.08,12.64,12.64,0,0,0-.54,1.3,2.79,2.79,0,0,1-2.29,1.53,7.45,7.45,0,0,1-2.82-.26,4.77,4.77,0,0,0-2.74.26,10.91,10.91,0,0,0-2.49,1.29,11.36,11.36,0,0,0-1.11.86,4.08,4.08,0,0,0-.93,1,3.9,3.9,0,0,0-.27,2.71,7.47,7.47,0,0,0,1.1,2.56,5.8,5.8,0,0,0,.92,1.07.73.73,0,0,1,.15.71,1.58,1.58,0,0,1-.38.62,17,17,0,0,1-2.18,1.81,10.61,10.61,0,0,0-2,1.9,3.86,3.86,0,0,0-.34,2.7,9.15,9.15,0,0,0,2.62,4.86,5.85,5.85,0,0,0,1.16.77,1.3,1.3,0,0,1,.5.54.84.84,0,0,1-.11.74,20.91,20.91,0,0,1-2,2,3.73,3.73,0,0,0-.8,1.12,1.67,1.67,0,0,0,.22,1.31,7.78,7.78,0,0,0,1.88,2.05,17.62,17.62,0,0,0,2.32,1.59,2.72,2.72,0,0,1,1.14.86,1.27,1.27,0,0,1-.07,1.4,2.29,2.29,0,0,1-1.17.84,1,1,0,0,0-.6,1.08,8.62,8.62,0,0,0,.55,2.73l.48,1.34a10.25,10.25,0,0,0,.33,1.35,1.77,1.77,0,0,0,1.13.68,8.12,8.12,0,0,0,1.39.17c1.88,0,3.77.13,5.65.31,3.76.33,7.5.78,11.24,1.26h.05v.06l2,8.2h0a33.05,33.05,0,0,0,4.61,12.48,30.78,30.78,0,0,0,4.15,5.23,25.39,25.39,0,0,0,5.24,4.12l-.09.13a10.83,10.83,0,0,1-1.9-3.18,36.11,36.11,0,0,1-1.23-3.49c-.7-2.36-1.26-4.77-1.76-7.18-1-4.83-1.73-9.69-2.33-14.59v-.1h.1c3.25,0,6.5-.1,9.73-.42a17.47,17.47,0,0,0,2.39-.37,2.17,2.17,0,0,0,1-.46,1.12,1.12,0,0,1,.37-.51,1.72,1.72,0,0,1,.59-.26,13.51,13.51,0,0,1,2.45-.16,5.14,5.14,0,0,0,1.18-.13,1.41,1.41,0,0,0,.51-.24,3.92,3.92,0,0,1,.54-.33,20.35,20.35,0,0,1,4.67-1.44,29.44,29.44,0,0,1,9.73-.23,41.64,41.64,0,0,0,4.81.71,31.61,31.61,0,0,0,9.64-.84,22.79,22.79,0,0,0,8.75-4,15.26,15.26,0,0,0,1.74-1.67,18.59,18.59,0,0,0,1.42-2,39.9,39.9,0,0,0,2.49-4.17,16.83,16.83,0,0,0,1.6-4.56,11.38,11.38,0,0,0-.16-4.79,17.43,17.43,0,0,0-5.24-8,16.93,16.93,0,0,0-8.7-4c-6.43-1.09-13-.07-19.37.79a28.3,28.3,0,0,1-4.87.37A5.15,5.15,0,0,1,165,141a16.37,16.37,0,0,1-2-1.38,72.38,72.38,0,0,1-7.06-6.73l-3.34-3.54c-.57-.58-1.13-1.16-1.73-1.71a6,6,0,0,0-.94-.74,4.85,4.85,0,0,0-1.11-.44,22.28,22.28,0,0,0-4.82-.57c-1.62-.05-3.24,0-4.86,0h-.09v-.09l2.06-12.48h0a37,37,0,0,1,.61-5.05c.29-1.67.61-3.33.94-5,.67-3.32,1.4-6.62,2.13-9.93l2.25-9.9c.37-1.65.75-3.3,1.08-5a8.64,8.64,0,0,0,.19-1.24,8.7,8.7,0,0,1,.28-1.25c.24-.81.51-1.62.77-2.42s.53-1.61.76-2.42c.11-.41.22-.82.29-1.23a4.38,4.38,0,0,0,.08-.62c0-.19,0-.45-.18-.46-.38,0-.63.47-.9.77s-.5.68-.73,1c-.48.69-.93,1.41-1.38,2.13-1.78,2.87-3.46,5.81-5.12,8.76s-3.29,5.91-4.88,8.9c-.39.75-.8,1.49-1.16,2.26-.2.79-.27,1.66-.46,2.48a14.78,14.78,0,0,1-.7,2.44A4.15,4.15,0,0,1,133.53,99.77Z"/>
    </g>
    <g id="arrow">
      <path class="cls-6" d="M106.81,122.32v5l-35-7.7L107,108.39l-.16,6.58,93,.07a2.59,2.59,0,0,1,2.16,1.15l.34.49.42,1.19v2.91h0a3,3,0,0,1-1.6,2l-.11,0Z"/>
      <path class="cls-6" d="M106.85,122.36v5h-.07l-35.15-7.28-1.77-.36,1.73-.56,35.17-11.35.84-.27,0,.89-.13,6.58-.66-.67,48.08-.17c8,0,16,0,24,0l12,.06,6,0,3,0a3.35,3.35,0,0,1,1.8.63,3.42,3.42,0,0,1,.69.68c.2.27.29.43.45.65l.05.08,0,.09.42,1.2.05.12v.12l0,2.84v.07l0,.18v0l0,.1-.07.21a2.83,2.83,0,0,1-.17.4,3.85,3.85,0,0,1-.47.74,4,4,0,0,1-1.35,1l-.17.07H201l-46.91-.48-11.76-.14-11.82-.2Zm-.07-.08,94.26.47h0a3.07,3.07,0,0,0,1.08-.84,2.83,2.83,0,0,0,.58-1.21V117.9l-.42-1.19h0a3.75,3.75,0,0,0-.94-1.11,2.54,2.54,0,0,0-1.35-.48h-21l-24,0-48.08,0h-.08V115l.16-6.57.1.07L71.77,119.64v-.12l35.05,7.71-.06,0Z"/>
    </g>
  </g>
</svg>
