<svg id="scorpiosvg" xmlns="http://www.w3.org/2000/svg" xmlns:xlink="http://www.w3.org/1999/xlink" viewBox="0 0 286.22 275.87">
  <defs>
    <style>
      .cls-1 {
        fill: url(#linear-gradient);
      }

      .cls-2 {
        fill: #e9939a;
      }

      .cls-3 {
        fill: url(#linear-gradient-2);
      }

      .cls-4 {
        fill: url(#New_Gradient_Swatch_1);
      }

      .cls-5 {
        fill: #e6847d;
      }

      .cls-6 {
        fill: #f9f9f9;
        stroke: #fff;
        stroke-miterlimit: 10;
        stroke-width: 0.5px;
      }
 
      #Scorpio_Sketch{
      animation: scaleDrew 5s ease-in-out infinite;
      transform-origin: center;
      }

      @keyframes scaleDrew {

    0% {
      transform: scale(1);
    }

    25% {
      transform: scale(1.5);
    }

    50% {
      transform: scale(1);
    }

    75% {
      transform: scale(1.5);
    }
  }










    </style>
    <linearGradient id="linear-gradient" x1="143.11" x2="143.11" y2="275.87" gradientTransform="translate(5.17 281.04) rotate(-90)" gradientUnits="userSpaceOnUse">
      <stop offset="0" stop-color="#f8e5e4"/>
      <stop offset="0.4" stop-color="#f8e3e1"/>
      <stop offset="0.65" stop-color="#f6dad9"/>
      <stop offset="0.86" stop-color="#f3cdca"/>
      <stop offset="1" stop-color="#f1c0bc"/>
    </linearGradient>
    <linearGradient id="linear-gradient-2" x1="143.11" y1="14.86" x2="143.11" y2="263.95" gradientUnits="userSpaceOnUse">
      <stop offset="0" stop-color="#f8e5e4"/>
      <stop offset="0.31" stop-color="#f8e2e2"/>
      <stop offset="0.51" stop-color="#f6dada"/>
      <stop offset="0.68" stop-color="#f3cbcc"/>
      <stop offset="0.83" stop-color="#efb6b9"/>
      <stop offset="0.97" stop-color="#ea9ba1"/>
      <stop offset="1" stop-color="#e9939a"/>
    </linearGradient>
    <linearGradient id="New_Gradient_Swatch_1" data-name="New Gradient Swatch 1" x1="143.11" y1="38.15" x2="143.11" y2="237.72" gradientUnits="userSpaceOnUse">
      <stop offset="0" stop-color="#e9939a"/>
      <stop offset="0.03" stop-color="#ea9ba1"/>
      <stop offset="0.17" stop-color="#efb6b9"/>
      <stop offset="0.32" stop-color="#f3cbcc"/>
      <stop offset="0.49" stop-color="#f6dada"/>
      <stop offset="0.69" stop-color="#f8e2e2"/>
      <stop offset="1" stop-color="#f8e5e4"/>
    </linearGradient>
  </defs>
  <g id="outer_2">
    <rect id="outer_board_2" class="cls-1" x="5.17" y="-5.17" width="275.87" height="286.22" rx="54.56" transform="translate(281.04 -5.17) rotate(90)"/>
  </g>
  <g id="outer">
    <rect id="outer_board" class="cls-2" x="5.57" y="5.56" width="275.07" height="264.76" rx="49.56"/>
  </g>
  <g id="inner_3">
    <ellipse id="inner_circle_3" class="cls-3" cx="143.11" cy="139.4" rx="127.51" ry="124.55"/>
  </g>
  <g id="inner_2">
    <ellipse id="inner_circle_2" class="cls-4" cx="143.11" cy="137.94" rx="101.93" ry="99.79"/>
  </g>
  <g id="inner">
    <ellipse id="inner_circle" class="cls-5" cx="143.11" cy="137.94" rx="83.33" ry="81.58"/>
  </g>
  <g id="scorpio">
    <path id="Scorpio_Sketch" class="cls-6" d="M124.74,123.57s-10.07.16-11.87,0a7.21,7.21,0,0,1-6.46-4.73c-1.5-3.83-3.31-9.33-4.81-10.24s-2.6-11,0-16.36,7.56-15,23.14-18.49c0,0-6.46,6.27-7.06,9.78s2.86,1,4-1.38a30.12,30.12,0,0,1,3-4.58s-.15,8.56-1.35,10.55-2.41,7.79-2.11,9-4.5,10.85-7.06,11.47-1.87,3.05-1.83,3.66,2.28.31,2.43,1.84,2.56,2.14,2.86,1.37a6.78,6.78,0,0,1,3.45-2.59c1.05-.16,6.31-.46,6.91,0s2,2.13,2.86,2.13,3.45.31,3.45-.15.91-.91,1.36-1.22,10.87-.61,10.84-.15,1.63,1.52,2.53,1.52,2.4-.45,2.55-1.22,1.05-1.68,1.5-1.68,7.67-.15,8.42,0,1.35,1.53,1.8,1.84a4.09,4.09,0,0,0,3.91-.77c1.35-1.22,3.75-1.68,1.8-3.21A34.4,34.4,0,0,1,158.39,95.6a70.79,70.79,0,0,1-3.75-16.5s3.45,1.37,4.2,2.44,6.76,9.63,5.71,4.44-5.26-8.19-6.16-9.14-3.6-3.86-3.6-3.86S174.32,77.11,179,90.71s1.2,16.66,0,19.11-3.46,6.72-3.76,9-3.61,4.11-5.26,4.8-14.12,0-14.12,0v6.51s4.51-.16,5.56-.92,12.54-3.72,19.94,2,5.6,5.14,5.6,5.14-2.26,1.38-3.46.92-9.24-7.28-18.63-4.89l-9.16.15v4a35.83,35.83,0,0,0,5.56-.16c.9-.3,13.22-1,16.67,1s8.8,7.09,9.21,7.4-2.3,1.22-3.35.76-5.86-5.5-10.06-5.5-5.56-1.07-7.36-.15-10.67.3-10.67.3v3.21s8.26.46,9,0,8-.3,8.57.31,10.36,8.1,11.41,13.3-3.15-1.23-4.2-2.14-6.16-8.3-12.47-8.2-12.32,0-12.32,0,0,3.3,1.8,3.92,10.67-1.07,14.42,3.36a34.68,34.68,0,0,1,6,11.46c.15.77-3.3-.61-4.35-3.06s-6.61-7.48-12-7.48h-5.41s.45,11.46-.15,12.38a33.88,33.88,0,0,0-2,6.26c-.31,1.38-3.31,7.95-.91,12.08s11.27,10.08,18,5.65,2-5.2,1.05-5.5-3.15-4.13-2.55-6.88-1-4.43-2.4-3.82-4.51,1.68-4.51,1.68.9-4.89,3.45-5.81,14-6.83,19.54-.91c0,0,4.2,1.83,3.9,7.79s-1.2,8.41-2.7,9.17-3,6.27-2.56,9.32-4.35,9.18-17.87,9.48-21.94-3.36-28.85-12.68S127,172,127.14,169.58s-1.65-9.48-2.1-10.24-.15-4.59-.15-4.59-8-1.07-9.32,1.53-10.36,9.48-10.36,9.48-.6-4.13,1.2-6.12,9.31-9.32,12.47-9a20.25,20.25,0,0,0,5.41-.16v-3.76s-11.27-.06-13.37,1.47S99.2,159.8,98.6,159.49s-.75-3.06.75-4.58,6.16-10.4,10.21-10.55,14.77-.31,14.77-.31v-3.51s-14.62-1.53-17,.15-10.22,7.64-10.22,7.64a4.14,4.14,0,0,1,0-4c1.21-1.83,6.16-7.34,8.42-7.64s19.23.3,19.23.3l0-3.7s-8.91-.12-10.26-.73-6-2.34-7.21-1.32-6.61,4.68-6.91,5.3-3,.15-3,.15.3-3.36,1.21-3.52a16.49,16.49,0,0,0,4.8-2.75c.45-.61,3.46-2.6,4.36-2.6s9.92-.3,10.52.61,4.35,1.53,5,1.53a2.34,2.34,0,0,1,1.2.46Z"/>
  </g>
</svg>
