<svg id="taurussvg" xmlns="http://www.w3.org/2000/svg" xmlns:xlink="http://www.w3.org/1999/xlink" viewBox="0 0 286.22 275.87">
  <defs>
    <style>
      .cls-1 {
        fill: url(#linear-gradient);
      }

      .cls-2 {
        fill: #cd8c5c;
      }

      .cls-3 {
        fill: url(#linear-gradient-2);
      }

      .cls-4 {
        fill: url(#linear-gradient-3);
      }

      .cls-5 {
        fill: #ce674e;
      }

      .cls-6 {
        fill: #fff;
      }

    #inner_circle_2{
    transform-origin: center;
    -webkit-transform: rotate(360deg);
    animation: rotation 3s linear infinite;}

    @-webkit-keyframes rotation{
    from {-webkit-transform: rotate(0deg);}
    to {-webkit-transform: rotate(360deg);}
    }

 


    #inner_circle_3{
    transform-origin: center;
    -webkit-transform: rotate(360deg);
    animation: rotation 3s linear infinite;}

    @-webkit-keyframes rotation{
    from {-webkit-transform: rotate(360deg);}
    to {-webkit-transform: rotate(0deg);}
    }







    </style>
    <linearGradient id="linear-gradient" x1="143.11" x2="143.11" y2="275.87" gradientTransform="translate(5.17 281.04) rotate(-90)" gradientUnits="userSpaceOnUse">
      <stop offset="0" stop-color="#dac7c6"/>
      <stop offset="0.26" stop-color="#dac6c3"/>
      <stop offset="0.43" stop-color="#dbc2bb"/>
      <stop offset="0.58" stop-color="#ddbcac"/>
      <stop offset="0.7" stop-color="#dfb397"/>
      <stop offset="0.82" stop-color="#e2a77c"/>
      <stop offset="0.93" stop-color="#e5995b"/>
      <stop offset="1" stop-color="#e88f43"/>
    </linearGradient>
    <linearGradient id="linear-gradient-2" x1="143.11" y1="13.39" x2="143.11" y2="262.48" gradientUnits="userSpaceOnUse">
      <stop offset="0" stop-color="#f6e0af"/>
      <stop offset="0.27" stop-color="#f5ddad"/>
      <stop offset="0.44" stop-color="#f2d5a5"/>
      <stop offset="0.58" stop-color="#ecc698"/>
      <stop offset="0.71" stop-color="#e4b185"/>
      <stop offset="0.83" stop-color="#da966d"/>
      <stop offset="0.94" stop-color="#cd7550"/>
      <stop offset="1" stop-color="#c5603d"/>
    </linearGradient>
    <linearGradient id="linear-gradient-3" x1="143.11" y1="38.15" x2="143.11" y2="237.72" gradientUnits="userSpaceOnUse">
      <stop offset="0" stop-color="#c5603d"/>
      <stop offset="0.32" stop-color="#d9946b"/>
      <stop offset="0.62" stop-color="#e9bd90"/>
      <stop offset="0.86" stop-color="#f2d7a7"/>
      <stop offset="1" stop-color="#f6e0af"/>
    </linearGradient>
  </defs>
  <g id="outer_2">
    <rect id="outer_board_2" class="cls-1" x="5.17" y="-5.17" width="275.87" height="286.22" rx="54.56" transform="translate(281.04 -5.17) rotate(90)"/>
  </g>
  <g id="outer">
    <rect id="outer_board" class="cls-2" x="5.57" y="5.56" width="275.07" height="264.76" rx="49.56"/>
  </g>
  <g id="inner_3">
    <ellipse id="inner_circle_3" class="cls-3" cx="143.11" cy="137.94" rx="127.51" ry="124.55"/>
  </g>
  <g id="inner_2">
    <ellipse id="inner_circle_2" class="cls-4" cx="143.11" cy="137.94" rx="101.93" ry="99.79"/>
  </g>
  <g id="inner">
    <ellipse id="inner_circle" class="cls-5" cx="143.11" cy="137.94" rx="83.33" ry="81.58"/>
  </g>
  <g id="taurus">
    <path id="Taurus_Sketch" class="cls-6" d="M89.11,86.39s-.27,4.61-1.19,6.06-4.08,4.73-3.16,10,13.85,23.21,34.09,18.81c0,0,1.45,0,1.58-.92s.13-1.18,1.44-1.18,47.12-.4,47.38.26,0,2.56.92,2.53,48.14-7.19,29.61-32.66c0,0-1.45-1.85.13-1.45s12.5,9.74,12.11,21.71-12.74,25.88-33.3,31.32c0,0-6.58,2.63-5.13,3.69s7.63,1.05,8.95-1.06,5.53-5,8-4.73,9.21,1,9.47,3.55-2.23,11.58-9.87,11.84-13.16,1.32-14.08,3.56-3.42,5.92-3.68,9.73-7.64,20.14-8.29,20.67-2.9,5.65-2.64,9.6.14,8-2.36,8.16-9.74,1.32-10,0-9.86-1.45-10.39,0-10.66.79-11.58-.92-.66-9.34-1.71-11.45-3.56-12.24-6.85-16.84-5.13-11.06-5.13-13.29.13-5.53-3-6.32-4.87-3.16-11.06-3.16-13.16-7.63-11.71-12.37,9.21-4.47,10.53-3.68,7.37,4.21,8.55,5.52a5.47,5.47,0,0,0,5,1.58c2.11-.26,4.48-1.45,1.19-3.42s-9.22-2-18.3-8S63.82,119.63,80,94.55A88.9,88.9,0,0,1,89.11,86.39Zm29.61,75.27c.46.47,4.6,2.44,5.19-1.11s-2.17-7.37-4.67-9.54-4.34,2-4.34,2C113.78,158.05,118.26,161.2,118.72,161.66ZM173.2,153s-1.85-4.15-4.35-2-5.26,6-4.67,9.54,4.74,1.58,5.2,1.11S174.32,158.05,173.2,153ZM131.92,199.5c1.07,1,3.67-.1,4.56-.79s-.69-3.26-1.18-3.46-.59-1.48-1.09-3.06-3.06,0-3.06,0A7.05,7.05,0,0,0,131.92,199.5Zm25.39-7.31s-2.56-1.57-3.05,0-.6,2.87-1.09,3.06S151.1,198,152,198.71s3.49,1.78,4.55.79A7,7,0,0,0,157.31,192.19Z"/>
  </g>
</svg>
