<svg  id="vivrgosvg" xmlns="http://www.w3.org/2000/svg" xmlns:xlink="http://www.w3.org/1999/xlink" viewBox="0 0 286.22 275.87">
  <defs>
    <style>
      .cls-1 {
        fill: url(#linear-gradient);
      }

      .cls-2 {
        fill: #c3dd00;
      }

      .cls-3 {
        fill: url(#linear-gradient-2);
      }

      .cls-4 {
        fill: url(#linear-gradient-3);
      }

      .cls-5 {
        fill: #a0a300;
      }

      .cls-6 {
        fill: #fff;
      }


      @-webkit-keyframes rotation{
      from {-webkit-transform: rotate(360deg);}
      to {-webkit-transform: rotate(0deg);}
      }
 
      
      #Virgo_Sketch{
      transform-origin: center;
      -webkit-transform: rotate(360deg);
      animation: rotation 6s linear infinite;}



    </style>
    <linearGradient id="linear-gradient" x1="143.11" x2="143.11" y2="275.87" gradientTransform="translate(5.17 281.04) rotate(-90)" gradientUnits="userSpaceOnUse">
      <stop offset="0" stop-color="#e6f199"/>
      <stop offset="0.3" stop-color="#e6f196"/>
      <stop offset="0.5" stop-color="#e4f08e"/>
      <stop offset="0.66" stop-color="#e2ee7f"/>
      <stop offset="0.81" stop-color="#dfeb6a"/>
      <stop offset="0.95" stop-color="#dbe84f"/>
      <stop offset="1" stop-color="#d9e642"/>
    </linearGradient>
    <linearGradient id="linear-gradient-2" x1="143.11" y1="13.09" x2="143.11" y2="262.18" gradientUnits="userSpaceOnUse">
      <stop offset="0" stop-color="#e6f199"/>
      <stop offset="0.75" stop-color="#c0e227"/>
      <stop offset="1" stop-color="#b3dd00"/>
    </linearGradient>
    <linearGradient id="linear-gradient-3" x1="143.11" y1="38.15" x2="143.11" y2="237.72" gradientUnits="userSpaceOnUse">
      <stop offset="0" stop-color="#b3dd00"/>
      <stop offset="0.25" stop-color="#c0e227"/>
      <stop offset="1" stop-color="#e6f199"/>
    </linearGradient>
  </defs>
  <g id="outer_2">
    <rect id="outer_board_2" class="cls-1" x="5.17" y="-5.17" width="275.87" height="286.22" rx="54.56" transform="translate(281.04 -5.17) rotate(90)"/>
  </g>
  <g id="outer">
    <rect id="outer_board" class="cls-2" x="5.57" y="5.56" width="275.07" height="264.76" rx="49.56"/>
  </g>
  <g id="inner_3">
    <ellipse id="inner_circle_3" class="cls-3" cx="143.11" cy="137.64" rx="127.51" ry="124.55"/>
  </g>
  <g id="inner_2">
    <ellipse id="inner_circle_2" class="cls-4" cx="143.11" cy="137.94" rx="101.93" ry="99.79"/>
  </g>
  <g id="inner">
    <ellipse id="inner_circle" class="cls-5" cx="143.11" cy="137.94" rx="83.33" ry="81.58"/>
  </g>
  <g id="virgo">
    <path id="Virgo_Sketch" class="cls-6" d="M166.66,185.31l-2.09-.2a37,37,0,0,1-9.37-1.79c-4.17-1.4-5.42-3.79-5.42-3.79l-9.17-.4s-1.87-1.44-5.48-.64-4.52,4-7,5.43a15.42,15.42,0,0,0-3,1.89,18.32,18.32,0,0,1,5-6.28,7.59,7.59,0,0,0,2.92-6.18,10.33,10.33,0,0,1-3.12,4c-2.3,1.79-6-.35-8.91,1.44s-2.14,7.13-3.39,12.12-2.29,9.17-2.29,9.17c-3.65-4.08-1.56-12.06-2-14.86s4.06-9.87,4.06-9.87a15.89,15.89,0,0,1,4-5.78c2.5-2,1.46-4.18,1.46-4.18a39.48,39.48,0,0,1-5.21,3.39c-2.08,1-5,5-5.62,9.37s-9.59,5.23-14,6a38.51,38.51,0,0,1-8,.6s6.09-1.85,8.18-2.65a33.49,33.49,0,0,0,9.16-6.18c2.3-2.39,2.09-6.38,4-11.16s5.21-5,5.21-5,2.35-12.22.68-8.23-17,11.37-25.16,13.17-10.31,10.61-12,14.8-.62,6.38-.62,6.38a19.71,19.71,0,0,0-1.46-1.84,51.86,51.86,0,0,0,.47-9c-.21-4.59,3.29-6.38,5.15-9.47s21-15.16,24.59-17.35,6.46-7.18,7.71-9.57,3.75-8.57,5-11.17a19.73,19.73,0,0,1,2.91-4.38l-2.91,1c-2.92,1-6.46,4.39-9.8,7.58s-5.57,2.89-7.65,3.29-17.5-.3-17.5-.3,6.4-.6,9.32-1.2a62.21,62.21,0,0,0,13.54-5.18c4-2.19,3.13-2.59-.41-2.19s-20.27-.25-20.27-.25a73.83,73.83,0,0,1,9.85-1c3,.11,9.58-3.29,12.71-4.48s1.87-3.59,2.57-7.63,9.1-5.53,12.64-6.71,4.37-7.6,4.58-10,3.75-4.78,10.42-11.16S163,75.2,169.42,75.2s12.31,10.09,15.85,14.28,3.47,24.7,2.22,27.7,2.08,13.5,3.13,18.69,1,25.52,1.25,28.11S180.61,178.53,179,180.33s-5,4.39-5.84,3.59,0-3,0-4.39S171,167.17,171,167.17s-.83,4.39-1.25,5.58-1.67,1.6-3.75,3.19,0,3.59,0,3.59ZM138,98.78a8.74,8.74,0,0,1-3,5.39c-2.11,1.79-1.11,2-1.87,5s-.94,2.79,1.17,3.79,1.17,1.79,2.57,5-.23,2.6-1.4,5.79-7,6.77-8.9,8.57-1.4,3.59,0,4.39,5.86,1,7,2.29-.71,3.49-1.46,4.28-.18,1.6,1,2.6a2.15,2.15,0,0,1-.25,3.59c-1.41.79-.45.79,0,2.13s1.89,1.25,2.82,2.65,0,2.19-1.87,3.19-.47,2.19,0,4.19,1.87,2.19,5.15,3.59,12.64.2,16.39.4,3,1,4.91,2.79,1.17,4,3,4,1.4-.79,3.27-3.78-1.63-18.75-1.4-17-2.34,7.24-2.81,9.09-5.85,1.14-10.77,0-3.28-1.85.94-2.45,4.68-3.59,5.76-8.58-.85-8-.14-9.57-1.41-4.38-1.64-7.77-1.87-10-1.87-11.17,3.27-2,1.17-2.39,0-2.19,0-2.19C142.13,109.77,140.16,95,140.16,95S138,97.79,138,98.78Z"/>
  </g>
</svg>
